<svg xmlns="http://www.w3.org/2000/svg" width="872" height="816" viewBox="0 0 872 816">
  <path fill="#fff" fill-rule="evenodd" d="M 377 364 L 339 416 L 314 460 L 314 463 L 310 469 L 301 495 L 301 513 L 303 515 L 313 514 L 324 510 L 341 501 L 357 490 L 378 472 L 379 464 L 386 464 L 391 461 L 428 422 L 428 419 L 380 419 L 378 417 Z M 293 329 L 253 356 L 217 385 L 217 690 L 215 717 L 212 730 L 204 745 L 195 753 L 184 759 L 165 764 L 124 765 L 123 783 L 126 785 L 472 784 L 472 765 L 431 764 L 413 759 L 399 751 L 388 740 L 384 733 L 380 717 L 379 706 L 378 530 L 377 529 L 346 553 L 317 569 L 308 571 L 286 571 L 268 566 L 252 556 L 238 539 L 233 527 L 229 508 L 229 469 L 236 440 L 242 424 L 253 402 L 296 330 Z M 519 117 L 519 135 L 559 136 L 563 138 L 576 140 L 590 147 L 605 162 L 609 170 L 609 176 L 611 180 L 613 259 L 613 417 L 611 419 L 490 419 L 451 462 L 453 464 L 613 465 L 613 683 L 611 719 L 609 727 L 600 744 L 592 752 L 580 759 L 562 764 L 520 765 L 519 784 L 867 785 L 867 765 L 836 765 L 815 761 L 797 753 L 783 740 L 779 733 L 776 721 L 774 676 L 774 307 L 776 182 L 781 165 L 788 155 L 797 147 L 810 140 L 828 136 L 867 135 L 867 116 Z M 473 117 L 350 117 L 350 119 L 294 197 L 217 296 L 217 325 L 222 324 L 223 322 L 258 299 L 262 295 L 264 295 L 268 291 L 328 253 L 353 240 L 370 233 L 376 232 L 378 230 L 379 198 L 382 174 L 386 164 L 395 152 L 410 142 L 430 136 L 472 135 Z M 123 134 L 142 136 L 163 136 L 180 140 L 197 149 L 213 166 L 240 130 L 248 117 L 124 116 Z M 346 55 L 334 54 L 324 59 L 304 75 L 285 94 L 248 139 L 188 226 L 188 228 L 159 272 L 113 349 L 15 521 L 6 543 L 6 556 L 11 563 L 24 568 L 37 568 L 52 554 L 63 540 L 112 471 L 154 425 L 179 401 L 219 366 L 258 337 L 292 315 L 328 295 L 332 297 L 319 316 L 303 344 L 301 345 L 301 347 L 263 410 L 252 433 L 243 462 L 241 473 L 241 504 L 243 516 L 250 534 L 262 548 L 277 556 L 290 559 L 306 559 L 315 556 L 330 548 L 372 517 L 408 485 L 459 435 L 481 408 L 486 398 L 486 393 L 483 389 L 477 389 L 472 392 L 427 442 L 391 478 L 370 496 L 341 516 L 329 522 L 306 528 L 296 526 L 289 518 L 289 490 L 291 487 L 293 476 L 300 462 L 300 459 L 313 434 L 346 383 L 427 273 L 427 262 L 424 252 L 416 245 L 401 241 L 391 241 L 374 245 L 349 256 L 317 274 L 215 343 L 139 398 L 136 397 L 147 375 L 180 325 L 222 268 L 293 177 L 346 101 L 357 80 L 357 70 L 351 59 Z"/>
</svg>
